<svg width="22" height="22" viewBox="0 0 22 22" fill="none" xmlns="http://www.w3.org/2000/svg">
<g filter="url(#filter0_d_57_55)">
<path d="M5 14C4.74414 14 4.48828 13.9023 4.29297 13.707C3.90234 13.3164 3.90234 12.6836 4.29297 12.293L16.293 0.292969C16.6836 -0.0976562 17.3164 -0.0976562 17.707 0.292969C18.0977 0.683594 18.0977 1.31641 17.707 1.70703L5.70703 13.707C5.51172 13.9023 5.25586 14 5 14Z" fill="#333B41"/>
<path d="M17 14C16.7441 14 16.4883 13.9023 16.293 13.707L4.29297 1.70703C3.90234 1.31641 3.90234 0.683594 4.29297 0.292969C4.68359 -0.0976562 5.31641 -0.0976562 5.70703 0.292969L17.707 12.293C18.0977 12.6836 18.0977 13.3164 17.707 13.707C17.5117 13.9023 17.2559 14 17 14Z" fill="#333B41"/>
</g>
<defs>
<filter id="filter0_d_57_55" x="0" y="0" width="22" height="22" filterUnits="userSpaceOnUse" color-interpolation-filters="sRGB">
<feFlood flood-opacity="0" result="BackgroundImageFix"/>
<feColorMatrix in="SourceAlpha" type="matrix" values="0 0 0 0 0 0 0 0 0 0 0 0 0 0 0 0 0 0 127 0" result="hardAlpha"/>
<feOffset dy="4"/>
<feGaussianBlur stdDeviation="2"/>
<feComposite in2="hardAlpha" operator="out"/>
<feColorMatrix type="matrix" values="0 0 0 0 0 0 0 0 0 0 0 0 0 0 0 0 0 0 0.25 0"/>
<feBlend mode="normal" in2="BackgroundImageFix" result="effect1_dropShadow_57_55"/>
<feBlend mode="normal" in="SourceGraphic" in2="effect1_dropShadow_57_55" result="shape"/>
</filter>
</defs>
</svg>
